<svg viewBox="0 0 1080 1080" fill="none" xmlns="http://www.w3.org/2000/svg">      <defs>  <filter id="filter" x="-20%" y="-20%" width="140%" height="140%" filterUnits="objectBoundingBox" primitiveUnits="userSpaceOnUse" color-interpolation-filters="linearRGB">    <feMorphology operator="dilate" radius="20 20" in="SourceAlpha" result="morphology"/>    <feFlood flood-color="#ffffff" flood-opacity="1" result="flood"/>    <feComposite in="flood" in2="morphology" operator="in" result="composite"/>    <feMerge result="merge">          <feMergeNode in="composite" result="mergeNode"/>      <feMergeNode in="SourceGraphic" result="mergeNode1"/>      </feMerge>  </filter></defs>      <g id="notion-avatar" filter="url(#filter)">        <g id="notion-avatar-face" fill="#ffffff">      <!--?xml version="1.0" encoding="UTF-8"?-->    <title>Face/ 6</title>    <g id="Face/-6" stroke="none" stroke-width="1" fill-rule="evenodd" stroke-linecap="round" stroke-linejoin="round">        <path d="M532,379 C664.54834,379 772,486.45166 772,619 C772,751.54834 764.54834,899 532,899 C402.610491,899 332.317998,816.086314 305.249034,718.717925 C264.225797,715.291578 232,680.909158 232,639 C232,599.134956 261.158843,566.080325 299.312086,560.00055 C325.599297,455.979213 419.809919,379 532,379 Z M295.858895,624.545187 L304.141105,655.454813" id="Path" stroke="#000000" stroke-width="24"/>    </g>    </g><g id="notion-avatar-nose">      <!--?xml version="1.0" encoding="UTF-8"?-->    <title>Nose/ 7</title>    <g id="Nose/-7" stroke="none" stroke-width="1" fill="none" fill-rule="evenodd" stroke-linecap="round" stroke-linejoin="round">        <path d="M649,600 C669,606.666667 679,620 679,640 C679,660 669,673.333333 649,680" id="Path" stroke="#000000" stroke-width="16"/>    </g>    </g><g id="notion-avatar-mouth">      <g id="Mouth/ 11"><path id="Path" fill-rule="evenodd" clip-rule="evenodd" d="M529 741C529 741 595 755 627 755C659 755 689 745.528 689 745.528C689 745.528 688 814 618 814C548 814 529 741 529 741Z" stroke="black" stroke-width="16" stroke-linecap="round" stroke-linejoin="round"/></g>    </g><g id="notion-avatar-eyes">      <!--?xml version="1.0" encoding="UTF-8"?-->    <title>Eyes/ 2</title>    <g id="Eyes/-2" stroke="none" stroke-width="1" fill="none" fill-rule="evenodd">        <path d="M570,516 C587.673112,516 602,530.326888 602,548 C602,565.673112 587.673112,580 570,580 C552.326888,580 538,565.673112 538,548 C538,530.326888 552.326888,516 570,516 Z M708,516 C725.673112,516 740,530.326888 740,548 C740,565.673112 725.673112,580 708,580 C690.326888,580 676,565.673112 676,548 C676,530.326888 690.326888,516 708,516 Z" id="Combined-Shape" fill="#000000"/>    </g>    </g><g id="notion-avatar-eyebrows">      <!--?xml version="1.0" encoding="UTF-8"?-->    <title>Eyebrows/ 0</title>    <g id="Eyebrows/-0" stroke="none" stroke-width="1" fill="none" fill-rule="evenodd" stroke-linecap="round" stroke-linejoin="round">        <g id="Group" transform="translate(525.000000, 492.000000)" stroke="#000000" stroke-width="16">            <path d="M0,16 C12.8888889,5.33333333 27.8888889,0 45,0 C62.1111111,0 77.1111111,5.33333333 90,16" id="Path"/>            <path d="M138,16 C150.888889,5.33333333 165.888889,0 183,0 C200.111111,0 215.111111,5.33333333 228,16" id="Path"/>        </g>    </g>    </g><g id="notion-avatar-glasses">      <!--?xml version="1.0" encoding="UTF-8"?-->    <title>Glasses/ 0</title>    <g id="Glasses/-0" stroke="none" stroke-width="1" fill="none" fill-rule="evenodd"/>    </g><g id="notion-avatar-hair">      <g id="Hairstyle/ 33"><path id="Path" fill-rule="evenodd" clip-rule="evenodd" d="M504 227C583.026 221.97 626 225 714 284C772.666 323.333 805.666 378 813 448L810.24 443.675C798.832 425.872 789.752 412.647 783 404C776.732 395.974 763.732 386.224 743.999 374.747C743.263 375.741 742.413 376.718 741.451 377.682C759.823 398.929 774.673 418.702 786 437C798.854 457.768 803.188 480.434 799 505C793.666 491 787 478.667 779 468C771 457.333 759.666 449 745 443L746.039 444.752C759.952 468.278 769.216 486.534 773.831 499.521L774 500C778.666 513.333 781.666 538 783 574C773.666 544 762 517 748 493C734 469 699 443.667 643 417C644.279 424.311 648.612 432.311 656 441C663.387 449.69 672.387 458.69 683 468C660.028 458.11 638.941 448.085 619.74 437.924L618 437C598.334 426.523 573.046 409.856 542.135 387L544.287 389.537C561.37 409.615 575.274 424.436 586 434C597.172 443.962 609.838 452.629 624 460C607.109 461.177 589.436 461.218 570.98 460.122L569 460C549.827 458.781 520.981 455.781 482.461 451L484.353 451.848C503.778 460.516 519.145 466.191 530.455 468.873L531 469C542.72 471.71 559.72 475.044 582 479C561.061 483.616 541.842 486.583 524.342 487.902L523 488C505.141 489.266 477.765 487.933 440.869 484L444.951 485.355C466.421 492.442 483.104 497.324 495 500L496.258 500.279C508.793 503.018 525.893 505.592 547.56 508L545.447 508.478C517.785 514.715 496.636 518.555 482 520C467.265 521.455 449.003 521.481 427.214 520.079L426 520L408 595L389.284 540.806L388.918 542.932C385.112 564.838 378.153 599.07 368.041 645.63L366 655L328.116 564.825H287.145C259.698 514.053 249.983 478.111 258 457C261.57 447.598 268.856 438.579 279.858 429.943C275.095 392.483 300.809 363.502 357 343C402.315 269.02 451.315 230.353 504 227Z" fill="black" stroke="black" stroke-width="12" stroke-linecap="round" stroke-linejoin="round"/></g>    </g><g id="notion-avatar-accessories">      <g id="Accessories/ 13"><g id="Group"><path id="Path" d="M848.363 445.583C849.786 445.07 851.351 445.114 852.743 445.706L850.396 451.228C852.743 445.706 852.744 445.706 852.746 445.707L852.749 445.708L852.758 445.712L852.786 445.724L852.875 445.763C852.949 445.795 853.053 445.84 853.184 445.898C853.447 446.014 853.818 446.181 854.279 446.395C855.198 446.821 856.482 447.438 857.965 448.209C860.888 449.73 864.777 451.951 868.203 454.608C871.354 457.052 875.295 460.742 876.572 465.47C877.289 468.124 877.143 471.032 875.711 473.813C874.355 476.445 872.099 478.475 869.468 480.074C863.828 483.5 856.636 484.179 849.943 483.851C843.081 483.514 835.793 482.063 829.257 480.352C822.686 478.633 816.678 476.599 812.324 475.002C810.142 474.201 808.363 473.505 807.121 473.006C806.5 472.757 806.013 472.556 805.676 472.416C805.508 472.346 805.377 472.291 805.286 472.252L805.179 472.207L805.149 472.194L805.139 472.19L805.136 472.189C805.135 472.188 805.134 472.188 807.502 466.675L805.134 472.188C802.87 471.215 801.431 468.957 801.505 466.495C801.579 464.032 803.151 461.865 805.469 461.03L848.363 445.583Z" fill="black" stroke="white" stroke-width="12" stroke-linecap="round" stroke-linejoin="round"/><path id="Path_2" d="M861.982 450.135C864.505 451.32 865.88 454.087 865.3 456.814C864.72 459.541 862.339 461.509 859.551 461.565L859.55 461.565L859.535 461.565L859.469 461.567C859.408 461.568 859.314 461.57 859.19 461.574C858.94 461.58 858.567 461.591 858.083 461.608C857.115 461.641 855.707 461.696 853.967 461.787C850.481 461.967 845.688 462.284 840.449 462.831C829.638 463.958 818.064 465.96 811.672 469.175C782.245 483.972 750.709 499.225 720.702 510.56C690.824 521.847 661.815 529.508 637.596 528.59C594.286 526.947 545.13 507.14 507.282 488.164C488.254 478.624 471.882 469.189 460.265 462.138C454.453 458.611 449.825 455.677 446.643 453.619C445.051 452.59 443.821 451.78 442.984 451.224C442.565 450.946 442.245 450.732 442.027 450.586L441.907 450.505L441.778 450.418L441.712 450.373L441.694 450.361L441.688 450.357C441.687 450.356 441.686 450.355 445.059 445.394L441.686 450.355C439.682 448.993 438.695 446.56 439.182 444.187C439.669 441.814 441.535 439.967 443.913 439.504L721.565 385.466C722.814 385.222 724.109 385.383 725.261 385.924L861.982 450.135Z" fill="black" stroke="white" stroke-width="12" stroke-linecap="round" stroke-linejoin="round"/><path id="Path_3" d="M742.711 401.355L748.62 400.311C749.129 403.193 747.485 406.021 744.729 407.005L742.711 401.355ZM742.711 401.355C748.62 400.311 748.619 400.307 748.619 400.303L748.616 400.29L748.609 400.249C748.603 400.216 748.594 400.169 748.584 400.11C748.562 399.992 748.53 399.824 748.488 399.606C748.404 399.172 748.279 398.541 748.107 397.729C747.765 396.105 747.239 393.751 746.495 390.776C745.006 384.827 742.643 376.385 739.125 366.311C732.096 346.183 720.416 319.429 701.805 293.03C664.434 240.022 599.166 188.633 488.668 195.066C378.311 201.49 322.937 256.205 295.493 309.668C281.856 336.233 275.177 362.34 271.898 381.773C270.256 391.501 269.462 399.59 269.077 405.273C268.885 408.115 268.795 410.359 268.754 411.908C268.733 412.682 268.724 413.283 268.721 413.699C268.719 413.907 268.719 414.069 268.719 414.183C268.719 414.24 268.719 414.285 268.719 414.318L268.719 414.358L268.719 414.371C268.719 414.376 268.719 414.38 274.719 414.326M742.711 401.355C744.729 407.005 744.728 407.005 744.728 407.006L744.725 407.007L744.713 407.011L744.671 407.026L744.507 407.084C744.363 407.135 744.15 407.211 743.871 407.31C743.313 407.507 742.49 407.797 741.428 408.168C739.302 408.912 736.215 409.983 732.358 411.297C724.645 413.925 713.848 417.53 701.506 421.435C676.883 429.226 645.881 438.289 620.93 443.145C596.034 447.991 557.101 452.548 524.586 455.884C508.288 457.556 493.532 458.928 482.852 459.882C477.511 460.359 473.187 460.732 470.198 460.985C468.703 461.112 467.541 461.209 466.753 461.274C466.359 461.307 466.058 461.332 465.855 461.348L465.625 461.367L465.566 461.372L465.551 461.373L465.547 461.374C465.546 461.374 465.545 461.374 465.06 455.393M274.719 414.326C270.991 419.027 270.993 419.028 270.994 419.029L270.997 419.032L271.005 419.038L271.031 419.058L271.116 419.125C271.188 419.181 271.29 419.261 271.422 419.363C271.686 419.566 272.068 419.857 272.563 420.227C273.553 420.965 274.993 422.016 276.836 423.297C280.521 425.857 285.827 429.345 292.371 433.099C305.413 440.579 323.59 449.239 343.775 453.594C363.726 457.899 394.226 459.821 419.366 460.691C432.015 461.129 443.441 461.305 451.706 461.371C455.839 461.404 459.184 461.409 461.498 461.407C462.656 461.405 463.556 461.402 464.168 461.399C464.474 461.397 464.708 461.396 464.867 461.395L465.047 461.394L465.094 461.393L465.106 461.393L465.11 461.393C465.111 461.393 465.111 461.393 465.06 455.393M274.719 414.326L270.991 419.027C269.571 417.901 268.736 416.193 268.719 414.38L274.719 414.326ZM465.06 455.393L465.545 461.374C465.401 461.385 465.256 461.392 465.111 461.393L465.06 455.393Z" fill="black" stroke="white" stroke-width="12" stroke-linecap="round" stroke-linejoin="round"/><path id="Oval" d="M467.691 222.83C459.814 223.797 452.181 223.032 446.139 220.726C440.381 218.528 434.472 214.202 433.606 207.149C432.739 200.095 437.427 194.468 442.482 190.943C447.787 187.243 455.008 184.654 462.885 183.687C470.762 182.72 478.395 183.485 484.437 185.791C490.196 187.989 496.105 192.315 496.971 199.368C497.837 206.422 493.15 212.049 488.094 215.574C482.789 219.274 475.568 221.863 467.691 222.83Z" fill="black" stroke="white" stroke-width="12" stroke-linecap="round" stroke-linejoin="round"/></g></g>    </g><g id="notion-avatar-details">      <!--?xml version="1.0" encoding="UTF-8"?-->    <title>Details/ 0</title>    <g id="Details/-0" stroke="none" stroke-width="1" fill="none" fill-rule="evenodd"/>    </g><g id="notion-avatar-beard">      <!--?xml version="1.0" encoding="UTF-8"?-->    <title>Beard/ 0</title>    <g id="Beard/-0" stroke="none" stroke-width="1" fill="none" fill-rule="evenodd"/>    </g>      </g>      </svg>